<?xml version="1.0" encoding="UTF-8" standalone="no"?>
<!DOCTYPE score-partwise PUBLIC
 "-//Recordare//DTD MusicXML 3.1 Partwise//EN"
 "http://www.musicxml.org/dtds/partwise.dtd">
<score-partwise version="3.1">
 <work>
    <work-title>Crossing To Ireland</work-title>
 </work>
 <part-list>
 <score-part id="P1">
 <part-name>guitar</part-name>
 </score-part>
 </part-list>
 <part id="P1"><measure number="1"><attributes><divisions>4</divisions><key><fifths>1</fifths></key><time><beats>3</beats><beat-type>4</beat-type></time><clef><sign>G</sign><line>2</line></clef></attributes><note><rest><duration>8</duration></rest></note><note><pitch><step>E</step><octave>4</octave></pitch><duration>2</duration></note><note><pitch><step>F</step><octave>4</octave><alter>+1</alter></pitch><duration>2</duration></note></measure><measure number="2"><attributes><divisions>4</divisions><key><fifths>1</fifths></key><time><beats>3</beats><beat-type>4</beat-type></time><clef><sign>G</sign><line>2</line></clef></attributes><note><pitch><step>G</step><octave>4</octave></pitch><duration>4</duration></note><note><pitch><step>E</step><octave>4</octave></pitch><duration>4</duration></note><note><pitch><step>E</step><octave>4</octave></pitch><duration>2</duration></note><note><pitch><step>D</step><octave>4</octave></pitch><duration>2</duration></note></measure><measure number="3"><attributes><divisions>4</divisions><key><fifths>1</fifths></key><time><beats>3</beats><beat-type>4</beat-type></time><clef><sign>G</sign><line>2</line></clef></attributes><note><pitch><step>B</step><octave>3</octave></pitch><duration>4</duration></note><note><pitch><step>E</step><octave>4</octave></pitch><duration>6<dotted></dotted></duration><dot></dot></note><note><pitch><step>F</step><octave>4</octave><alter>+1</alter></pitch><duration>2</duration></note></measure><measure number="4"><attributes><divisions>4</divisions><key><fifths>1</fifths></key><time><beats>3</beats><beat-type>4</beat-type></time><clef><sign>G</sign><line>2</line></clef></attributes><note><pitch><step>G</step><octave>4</octave></pitch><duration>4</duration></note><note><pitch><step>E</step><octave>4</octave></pitch><duration>2</duration></note><note><pitch><step>F</step><octave>4</octave><alter>+1</alter></pitch><duration>2</duration></note><note><pitch><step>G</step><octave>4</octave></pitch><duration>4</duration></note></measure><measure number="5"><attributes><divisions>4</divisions><key><fifths>1</fifths></key><time><beats>3</beats><beat-type>4</beat-type></time><clef><sign>G</sign><line>2</line></clef></attributes><note><pitch><step>B</step><octave>4</octave></pitch><duration>6<dotted></dotted></duration><dot></dot></note><note><pitch><step>B</step><octave>4</octave></pitch><duration>2</duration></note><note><pitch><step>A</step><octave>4</octave></pitch><duration>2</duration></note><note><pitch><step>G</step><octave>4</octave></pitch><duration>2</duration></note></measure><measure number="6"><attributes><divisions>4</divisions><key><fifths>1</fifths></key><time><beats>3</beats><beat-type>4</beat-type></time><clef><sign>G</sign><line>2</line></clef></attributes><note><pitch><step>F</step><octave>4</octave><alter>+1</alter></pitch><duration>4</duration></note><note><pitch><step>D</step><octave>4</octave></pitch><duration>4</duration></note><note><pitch><step>D</step><octave>4</octave></pitch><duration>4</duration></note></measure><measure number="7"><attributes><divisions>4</divisions><key><fifths>1</fifths></key><time><beats>3</beats><beat-type>4</beat-type></time><clef><sign>G</sign><line>2</line></clef></attributes><note><pitch><step>A</step><octave>3</octave></pitch><duration>4</duration></note><note><pitch><step>D</step><octave>4</octave></pitch><duration>4</duration></note><note><pitch><step>D</step><octave>4</octave></pitch><duration>4</duration></note></measure><measure number="8"><attributes><divisions>4</divisions><key><fifths>1</fifths></key><time><beats>3</beats><beat-type>4</beat-type></time><clef><sign>G</sign><line>2</line></clef></attributes><note><pitch><step>F</step><octave>4</octave><alter>+1</alter></pitch><duration>4</duration></note><note><pitch><step>D</step><octave>4</octave></pitch><duration>4</duration></note><note><pitch><step>D</step><octave>4</octave></pitch><duration>4</duration></note></measure><measure number="9"><attributes><divisions>4</divisions><key><fifths>1</fifths></key><time><beats>3</beats><beat-type>4</beat-type></time><clef><sign>G</sign><line>2</line></clef></attributes><note><pitch><step>A</step><octave>4</octave></pitch><duration>6<dotted></dotted></duration><dot></dot></note><note><pitch><step>A</step><octave>4</octave></pitch><duration>2</duration></note><note><pitch><step>G</step><octave>4</octave></pitch><duration>2</duration></note><note><pitch><step>F</step><octave>4</octave><alter>+1</alter></pitch><duration>2</duration></note></measure><measure number="10"><attributes><divisions>4</divisions><key><fifths>1</fifths></key><time><beats>3</beats><beat-type>4</beat-type></time><clef><sign>G</sign><line>2</line></clef></attributes><note><pitch><step>G</step><octave>4</octave></pitch><duration>4</duration></note><note><pitch><step>E</step><octave>4</octave></pitch><duration>4</duration></note><note><pitch><step>E</step><octave>4</octave></pitch><duration>2</duration></note><note><pitch><step>D</step><octave>4</octave></pitch><duration>2</duration></note></measure><measure number="11"><attributes><divisions>4</divisions><key><fifths>1</fifths></key><time><beats>3</beats><beat-type>4</beat-type></time><clef><sign>G</sign><line>2</line></clef></attributes><note><pitch><step>B</step><octave>3</octave></pitch><duration>4</duration></note><note><pitch><step>E</step><octave>4</octave></pitch><duration>6<dotted></dotted></duration><dot></dot></note><note><pitch><step>F</step><octave>4</octave><alter>+1</alter></pitch><duration>2</duration></note></measure><measure number="12"><attributes><divisions>4</divisions><key><fifths>1</fifths></key><time><beats>3</beats><beat-type>4</beat-type></time><clef><sign>G</sign><line>2</line></clef></attributes><note><pitch><step>G</step><octave>4</octave></pitch><duration>4</duration></note><note><pitch><step>E</step><octave>4</octave></pitch><duration>2</duration></note><note><pitch><step>F</step><octave>4</octave><alter>+1</alter></pitch><duration>2</duration></note><note><pitch><step>G</step><octave>4</octave></pitch><duration>4</duration></note></measure><measure number="13"><attributes><divisions>4</divisions><key><fifths>1</fifths></key><time><beats>3</beats><beat-type>4</beat-type></time><clef><sign>G</sign><line>2</line></clef></attributes><note><pitch><step>B</step><octave>4</octave></pitch><duration>8</duration></note><note><pitch><step>A</step><octave>4</octave></pitch><duration>4</duration></note></measure><measure number="14"><attributes><divisions>4</divisions><key><fifths>1</fifths></key><time><beats>3</beats><beat-type>4</beat-type></time><clef><sign>G</sign><line>2</line></clef></attributes><note><pitch><step>G</step><octave>4</octave></pitch><duration>6<dotted></dotted></duration><dot></dot></note><note><pitch><step>A</step><octave>4</octave></pitch><duration>2</duration></note><note><pitch><step>B</step><octave>4</octave></pitch><duration>2</duration></note><note><pitch><step>C</step><octave>5</octave><alter>+1</alter></pitch><duration>2</duration></note></measure><measure number="15"><attributes><divisions>4</divisions><key><fifths>1</fifths></key><time><beats>3</beats><beat-type>4</beat-type></time><clef><sign>G</sign><line>2</line></clef></attributes><note><pitch><step>D</step><octave>5</octave></pitch><duration>4</duration></note><note><pitch><step>C</step><octave>5</octave><alter>+1</alter></pitch><duration>4</duration></note><note><pitch><step>B</step><octave>4</octave></pitch><duration>4</duration></note></measure><measure number="16"><attributes><divisions>4</divisions><key><fifths>1</fifths></key><time><beats>3</beats><beat-type>4</beat-type></time><clef><sign>G</sign><line>2</line></clef></attributes><note><pitch><step>A</step><octave>4</octave></pitch><duration>4</duration></note><note><pitch><step>G</step><octave>4</octave></pitch><duration>4</duration></note><note><pitch><step>F</step><octave>4</octave><alter>+1</alter></pitch><duration>4</duration></note></measure><measure number="17"><attributes><divisions>4</divisions><key><fifths>1</fifths></key><time><beats>3</beats><beat-type>4</beat-type></time><clef><sign>G</sign><line>2</line></clef></attributes><note><pitch><step>E</step><octave>4</octave></pitch><duration>8</duration></note><note><pitch><step>E</step><octave>4</octave></pitch><duration>2</duration></note><note><pitch><step>F</step><octave>4</octave><alter>+1</alter></pitch><duration>2</duration></note></measure><measure number="18"><attributes><divisions>4</divisions><key><fifths>1</fifths></key><time><beats>3</beats><beat-type>4</beat-type></time><clef><sign>G</sign><line>2</line></clef></attributes><note><pitch><step>E</step><octave>4</octave></pitch><duration>6<dotted></dotted></duration><dot></dot></note><note><pitch><step>E</step><octave>5</octave></pitch><duration>2</duration></note><note><pitch><step>E</step><octave>5</octave></pitch><duration>2</duration></note><note><pitch><step>F</step><octave>5</octave><alter>+1</alter></pitch><duration>2</duration></note></measure><measure number="19"><attributes><divisions>4</divisions><key><fifths>1</fifths></key><time><beats>3</beats><beat-type>4</beat-type></time><clef><sign>G</sign><line>2</line></clef></attributes><note><pitch><step>G</step><octave>5</octave></pitch><duration>4</duration></note><note><pitch><step>E</step><octave>5</octave></pitch><duration>4</duration></note><note><pitch><step>E</step><octave>5</octave></pitch><duration>4</duration></note></measure><measure number="20"><attributes><divisions>4</divisions><key><fifths>1</fifths></key><time><beats>3</beats><beat-type>4</beat-type></time><clef><sign>G</sign><line>2</line></clef></attributes><note><pitch><step>B</step><octave>4</octave></pitch><duration>4</duration></note><note><pitch><step>E</step><octave>5</octave></pitch><duration>6<dotted></dotted></duration><dot></dot></note><note><pitch><step>B</step><octave>4</octave></pitch><duration>2</duration></note></measure><measure number="21"><attributes><divisions>4</divisions><key><fifths>1</fifths></key><time><beats>3</beats><beat-type>4</beat-type></time><clef><sign>G</sign><line>2</line></clef></attributes><note><pitch><step>G</step><octave>4</octave></pitch><duration>4</duration></note><note><pitch><step>E</step><octave>4</octave></pitch><duration>4</duration></note><note><pitch><step>E</step><octave>4</octave></pitch><duration>4</duration></note></measure><measure number="22"><attributes><divisions>4</divisions><key><fifths>1</fifths></key><time><beats>3</beats><beat-type>4</beat-type></time><clef><sign>G</sign><line>2</line></clef></attributes><note><pitch><step>E</step><octave>4</octave></pitch><duration>6<dotted></dotted></duration><dot></dot></note><note><pitch><step>B</step><octave>5</octave></pitch><duration>2</duration></note><note><pitch><step>A</step><octave>5</octave></pitch><duration>2</duration></note><note><pitch><step>G</step><octave>5</octave></pitch><duration>2</duration></note></measure><measure number="23"><attributes><divisions>4</divisions><key><fifths>1</fifths></key><time><beats>3</beats><beat-type>4</beat-type></time><clef><sign>G</sign><line>2</line></clef></attributes><note><pitch><step>F</step><octave>5</octave><alter>+1</alter></pitch><duration>4</duration></note><note><pitch><step>D</step><octave>5</octave></pitch><duration>4</duration></note><note><pitch><step>D</step><octave>5</octave></pitch><duration>4</duration></note></measure><measure number="24"><attributes><divisions>4</divisions><key><fifths>1</fifths></key><time><beats>3</beats><beat-type>4</beat-type></time><clef><sign>G</sign><line>2</line></clef></attributes><note><pitch><step>A</step><octave>4</octave></pitch><duration>4</duration></note><note><pitch><step>D</step><octave>5</octave></pitch><duration>6<dotted></dotted></duration><dot></dot></note><note><pitch><step>A</step><octave>4</octave></pitch><duration>2</duration></note></measure><measure number="25"><attributes><divisions>4</divisions><key><fifths>1</fifths></key><time><beats>3</beats><beat-type>4</beat-type></time><clef><sign>G</sign><line>2</line></clef></attributes><note><pitch><step>F</step><octave>4</octave><alter>+1</alter></pitch><duration>4</duration></note><note><pitch><step>D</step><octave>4</octave></pitch><duration>4</duration></note><note><pitch><step>D</step><octave>4</octave></pitch><duration>4</duration></note></measure><measure number="26"><attributes><divisions>4</divisions><key><fifths>1</fifths></key><time><beats>3</beats><beat-type>4</beat-type></time><clef><sign>G</sign><line>2</line></clef></attributes><note><pitch><step>D</step><octave>4</octave></pitch><duration>6<dotted></dotted></duration><dot></dot></note><note><pitch><step>A</step><octave>5</octave></pitch><duration>2</duration></note><note><pitch><step>G</step><octave>5</octave></pitch><duration>2</duration></note><note><pitch><step>F</step><octave>5</octave><alter>+1</alter></pitch><duration>2</duration></note></measure><measure number="27"><attributes><divisions>4</divisions><key><fifths>1</fifths></key><time><beats>3</beats><beat-type>4</beat-type></time><clef><sign>G</sign><line>2</line></clef></attributes><note><pitch><step>G</step><octave>5</octave></pitch><duration>4</duration></note><note><pitch><step>E</step><octave>5</octave></pitch><duration>4</duration></note><note><pitch><step>E</step><octave>5</octave></pitch><duration>4</duration></note></measure><measure number="28"><attributes><divisions>4</divisions><key><fifths>1</fifths></key><time><beats>3</beats><beat-type>4</beat-type></time><clef><sign>G</sign><line>2</line></clef></attributes><note><pitch><step>B</step><octave>4</octave></pitch><duration>4</duration></note><note><pitch><step>E</step><octave>5</octave></pitch><duration>6<dotted></dotted></duration><dot></dot></note><note><pitch><step>B</step><octave>4</octave></pitch><duration>2</duration></note></measure><measure number="29"><attributes><divisions>4</divisions><key><fifths>1</fifths></key><time><beats>3</beats><beat-type>4</beat-type></time><clef><sign>G</sign><line>2</line></clef></attributes><note><pitch><step>G</step><octave>4</octave></pitch><duration>4</duration></note><note><pitch><step>E</step><octave>4</octave></pitch><duration>4</duration></note><note><pitch><step>G</step><octave>5</octave></pitch><duration>4</duration></note></measure><measure number="30"><attributes><divisions>4</divisions><key><fifths>1</fifths></key><time><beats>3</beats><beat-type>4</beat-type></time><clef><sign>G</sign><line>2</line></clef></attributes><note><pitch><step>F</step><octave>5</octave><alter>+1</alter></pitch><duration>8</duration></note><note><pitch><step>E</step><octave>5</octave></pitch><duration>4</duration></note></measure><measure number="31"><attributes><divisions>4</divisions><key><fifths>1</fifths></key><time><beats>3</beats><beat-type>4</beat-type></time><clef><sign>G</sign><line>2</line></clef></attributes><note><pitch><step>G</step><octave>4</octave></pitch><duration>6<dotted></dotted></duration><dot></dot></note><note><pitch><step>A</step><octave>4</octave></pitch><duration>2</duration></note><note><pitch><step>B</step><octave>4</octave></pitch><duration>2</duration></note><note><pitch><step>C</step><octave>5</octave><alter>+1</alter></pitch><duration>2</duration></note></measure><measure number="32"><attributes><divisions>4</divisions><key><fifths>1</fifths></key><time><beats>3</beats><beat-type>4</beat-type></time><clef><sign>G</sign><line>2</line></clef></attributes><note><pitch><step>D</step><octave>5</octave></pitch><duration>4</duration></note><note><pitch><step>C</step><octave>5</octave><alter>+1</alter></pitch><duration>4</duration></note><note><pitch><step>B</step><octave>4</octave></pitch><duration>4</duration></note></measure><measure number="33"><attributes><divisions>4</divisions><key><fifths>1</fifths></key><time><beats>3</beats><beat-type>4</beat-type></time><clef><sign>G</sign><line>2</line></clef></attributes><note><pitch><step>A</step><octave>4</octave></pitch><duration>4</duration></note><note><pitch><step>G</step><octave>4</octave></pitch><duration>4</duration></note><note><pitch><step>F</step><octave>4</octave><alter>+1</alter></pitch><duration>4</duration></note></measure><measure number="34"><attributes><divisions>4</divisions><key><fifths>1</fifths></key><time><beats>3</beats><beat-type>4</beat-type></time><clef><sign>G</sign><line>2</line></clef></attributes><note><pitch><step>E</step><octave>4</octave></pitch><duration>8</duration></note><note><pitch><step>E</step><octave>5</octave></pitch><duration>2</duration></note><note><pitch><step>F</step><octave>5</octave><alter>+1</alter></pitch><duration>2</duration></note></measure><measure number="35"><attributes><divisions>4</divisions><key><fifths>1</fifths></key><time><beats>3</beats><beat-type>4</beat-type></time><clef><sign>G</sign><line>2</line></clef></attributes><note><pitch><step>G</step><octave>5</octave></pitch><duration>4</duration></note><note><pitch><step>E</step><octave>5</octave></pitch><duration>4</duration></note><note><pitch><step>E</step><octave>5</octave></pitch><duration>4</duration></note></measure><measure number="36"><attributes><divisions>4</divisions><key><fifths>1</fifths></key><time><beats>3</beats><beat-type>4</beat-type></time><clef><sign>G</sign><line>2</line></clef></attributes><note><pitch><step>B</step><octave>4</octave></pitch><duration>4</duration></note><note><pitch><step>E</step><octave>5</octave></pitch><duration>4</duration></note><note><pitch><step>E</step><octave>5</octave></pitch><duration>4</duration></note></measure><measure number="37"><attributes><divisions>4</divisions><key><fifths>1</fifths></key><time><beats>3</beats><beat-type>4</beat-type></time><clef><sign>G</sign><line>2</line></clef></attributes><note><pitch><step>E</step><octave>4</octave></pitch><duration>4</duration></note><note><pitch><step>G</step><octave>4</octave></pitch><duration>4</duration></note><note><pitch><step>B</step><octave>4</octave></pitch><duration>4</duration></note></measure><measure number="38"><attributes><divisions>4</divisions><key><fifths>1</fifths></key><time><beats>3</beats><beat-type>4</beat-type></time><clef><sign>G</sign><line>2</line></clef></attributes><note><pitch><step>E</step><octave>5</octave></pitch><duration>2</duration></note><note><pitch><step>F</step><octave>5</octave><alter>+1</alter></pitch><duration>2</duration></note><note><pitch><step>G</step><octave>5</octave></pitch><duration>2</duration></note><note><pitch><step>B</step><octave>5</octave></pitch><duration>2</duration></note><note><pitch><step>A</step><octave>5</octave></pitch><duration>2</duration></note><note><pitch><step>G</step><octave>5</octave></pitch><duration>2</duration></note></measure><measure number="39"><attributes><divisions>4</divisions><key><fifths>1</fifths></key><time><beats>3</beats><beat-type>4</beat-type></time><clef><sign>G</sign><line>2</line></clef></attributes><note><pitch><step>F</step><octave>5</octave><alter>+1</alter></pitch><duration>4</duration></note><note><pitch><step>D</step><octave>5</octave></pitch><duration>4</duration></note><note><pitch><step>D</step><octave>5</octave></pitch><duration>4</duration></note></measure><measure number="40"><attributes><divisions>4</divisions><key><fifths>1</fifths></key><time><beats>3</beats><beat-type>4</beat-type></time><clef><sign>G</sign><line>2</line></clef></attributes><note><pitch><step>A</step><octave>4</octave></pitch><duration>4</duration></note><note><pitch><step>D</step><octave>5</octave></pitch><duration>6<dotted></dotted></duration><dot></dot></note><note><pitch><step>A</step><octave>4</octave></pitch><duration>2</duration></note></measure><measure number="41"><attributes><divisions>4</divisions><key><fifths>1</fifths></key><time><beats>3</beats><beat-type>4</beat-type></time><clef><sign>G</sign><line>2</line></clef></attributes><note><pitch><step>D</step><octave>4</octave></pitch><duration>4</duration></note><note><pitch><step>F</step><octave>4</octave><alter>+1</alter></pitch><duration>4</duration></note><note><pitch><step>A</step><octave>4</octave></pitch><duration>4</duration></note></measure><measure number="42"><attributes><divisions>4</divisions><key><fifths>1</fifths></key><time><beats>3</beats><beat-type>4</beat-type></time><clef><sign>G</sign><line>2</line></clef></attributes><note><pitch><step>D</step><octave>5</octave></pitch><duration>2</duration></note><note><pitch><step>E</step><octave>5</octave></pitch><duration>2</duration></note><note><pitch><step>F</step><octave>5</octave><alter>+1</alter></pitch><duration>2</duration></note><note><pitch><step>G</step><octave>5</octave></pitch><duration>2</duration></note><note><pitch><step>A</step><octave>5</octave></pitch><duration>2</duration></note><note><pitch><step>F</step><octave>5</octave><alter>+1</alter></pitch><duration>2</duration></note></measure><measure number="43"><attributes><divisions>4</divisions><key><fifths>1</fifths></key><time><beats>3</beats><beat-type>4</beat-type></time><clef><sign>G</sign><line>2</line></clef></attributes><note><pitch><step>G</step><octave>5</octave></pitch><duration>6<dotted></dotted></duration><dot></dot></note><note><pitch><step>F</step><octave>5</octave><alter>+1</alter></pitch><duration>2</duration></note><note><pitch><step>E</step><octave>5</octave></pitch><duration>4</duration></note></measure><measure number="44"><attributes><divisions>4</divisions><key><fifths>1</fifths></key><time><beats>3</beats><beat-type>4</beat-type></time><clef><sign>G</sign><line>2</line></clef></attributes><note><pitch><step>F</step><octave>5</octave><alter>+1</alter></pitch><duration>6<dotted></dotted></duration><dot></dot></note><note><pitch><step>E</step><octave>5</octave></pitch><duration>2</duration></note><note><pitch><step>D</step><octave>5</octave><alter>+1</alter></pitch><duration>4</duration></note></measure><measure number="45"><attributes><divisions>4</divisions><key><fifths>1</fifths></key><time><beats>3</beats><beat-type>4</beat-type></time><clef><sign>G</sign><line>2</line></clef></attributes><note><pitch><step>E</step><octave>5</octave></pitch><duration>6<dotted></dotted></duration><dot></dot></note><note><pitch><step>D</step><octave>5</octave></pitch><duration>2</duration></note><note><pitch><step>B</step><octave>4</octave></pitch><duration>4</duration></note></measure><measure number="46"><attributes><divisions>4</divisions><key><fifths>1</fifths></key><time><beats>3</beats><beat-type>4</beat-type></time><clef><sign>G</sign><line>2</line></clef></attributes><note><pitch><step>A</step><octave>4</octave></pitch><duration>6<dotted></dotted></duration><dot></dot></note><note><pitch><step>G</step><octave>4</octave></pitch><duration>2</duration></note><note><pitch><step>F</step><octave>4</octave><alter>+1</alter></pitch><duration>4</duration></note></measure><measure number="47"><attributes><divisions>4</divisions><key><fifths>1</fifths></key><time><beats>3</beats><beat-type>4</beat-type></time><clef><sign>G</sign><line>2</line></clef></attributes><note><pitch><step>G</step><octave>4</octave></pitch><duration>6<dotted></dotted></duration><dot></dot></note><note><pitch><step>A</step><octave>4</octave></pitch><duration>2</duration></note><note><pitch><step>B</step><octave>4</octave></pitch><duration>2</duration></note><note><pitch><step>C</step><octave>5</octave><alter>+1</alter></pitch><duration>2</duration></note></measure><measure number="48"><attributes><divisions>4</divisions><key><fifths>1</fifths></key><time><beats>3</beats><beat-type>4</beat-type></time><clef><sign>G</sign><line>2</line></clef></attributes><note><pitch><step>D</step><octave>5</octave></pitch><duration>4</duration></note><note><pitch><step>C</step><octave>5</octave><alter>+1</alter></pitch><duration>4</duration></note><note><pitch><step>B</step><octave>4</octave></pitch><duration>4</duration></note></measure><measure number="49"><attributes><divisions>4</divisions><key><fifths>1</fifths></key><time><beats>3</beats><beat-type>4</beat-type></time><clef><sign>G</sign><line>2</line></clef></attributes><note><pitch><step>A</step><octave>4</octave></pitch><duration>4</duration></note><note><pitch><step>G</step><octave>4</octave></pitch><duration>4</duration></note><note><pitch><step>F</step><octave>4</octave><alter>+1</alter></pitch><duration>4</duration></note></measure><measure number="50"><attributes><divisions>4</divisions><key><fifths>1</fifths></key><time><beats>3</beats><beat-type>4</beat-type></time><clef><sign>G</sign><line>2</line></clef></attributes><note><pitch><step>E</step><octave>4</octave></pitch><duration>8</duration></note><note><rest><duration>4</duration></rest></note></measure></part>
</score-partwise>